<svg version="1.2" xmlns="http://www.w3.org/2000/svg" viewBox="0 0 104 54" width="104" height="54"><style>.a{fill:#438bc9}.b{fill:#2171b8}.c{fill:#74b5e3}.d{fill:#141011}</style><path fill-rule="evenodd" class="a" d="m53.7 34.1l-10-10c-4-4-5.2-10.1-3-15.4 2.2-5.3 7.3-8.7 13-8.7 5.7 0 10.9 3.4 13.1 8.7 2.2 5.3 1 11.4-3.1 15.4l-5.4-5.4c1.9-1.9 2.4-4.6 1.4-7-1-2.5-3.3-4-6-4-2.6 0-4.9 1.5-5.9 4-1 2.4-0.5 5.1 1.4 7l4.5 4.5 5.5 5.5z"/><path fill-rule="evenodd" class="b" d="m59.1 39.5l10-10c4.1-4.1 10.2-5.3 15.4-3.1 5.3 2.2 8.8 7.4 8.8 13.1 0 5.7-3.5 10.9-8.8 13-5.2 2.2-11.3 1-15.4-3l5.5-5.5c1.8 1.9 4.6 2.4 7 1.4 2.4-1 4-3.3 4-5.9 0-2.6-1.6-5-4-6-2.4-1-5.2-0.4-7 1.4l-4.6 4.6-5.5 5.4z"/><path fill-rule="evenodd" class="c" d="m48.4 39.5l-10 10c-4.1 4-10.2 5.2-15.4 3.1-5.3-2.2-8.8-7.4-8.8-13.1 0-5.7 3.5-10.9 8.8-13.1 5.2-2.2 11.3-1 15.4 3.1l-5.5 5.4c-1.8-1.8-4.6-2.4-7-1.4-2.4 1-4 3.4-4 6 0 2.6 1.6 4.9 4 5.9 2.4 1 5.2 0.5 7-1.3l4.6-4.6 5.4-5.4z"/><path fill-rule="evenodd" class="d" d="m-24 109.1v-33h5.4l0.3 3.2q0.7-0.9 1.5-1.6 0.9-0.7 1.9-1.2 0.9-0.5 2-0.7 1.1-0.2 2.2-0.2c7.2 0 12 5.4 12 12.2 0 6.8-4.3 12.2-11.8 12.2-2.4 0-6.1-0.8-7.7-3.3v12.4zm15.4-15.1q1.3-0.5 2.2-1.5 0.9-0.9 1.4-2.1 0.5-1.3 0.5-2.6 0-1.3-0.4-2.6-0.5-1.2-1.5-2.1-0.9-1-2.1-1.5-1.3-0.5-2.6-0.4-1.4-0.1-2.6 0.4-1.2 0.5-2.2 1.4-0.9 1-1.4 2.2-0.5 1.3-0.4 2.6-0.1 1.3 0.4 2.6 0.5 1.2 1.5 2.1 0.9 1 2.1 1.5 1.3 0.5 2.6 0.4 1.3 0.1 2.5-0.4zm29.8-17.5c1.5 0.6 2.9 1.5 4 2.6 1.2 1.1 2.1 2.5 2.7 4 0.6 1.5 0.8 3.1 0.8 4.7 0 6.7-4.6 12.2-12.2 12.2-7.5 0-12-5.5-12-12.2 0-6.6 4.6-12.1 12-12.1 1.6-0.1 3.2 0.2 4.7 0.8zm-11 11.3c0 3.6 2.1 6.9 6.3 6.9 4.2 0 6.4-3.4 6.4-6.9 0-3.5-2.5-6.9-6.4-6.9-4.1 0-6.3 3.4-6.3 6.9zm39.6 11.7v-12.2c0-3.6-1.9-6.3-5.6-6.3-3.6 0-6 3-6 6.5v12h-5.7v-23.4h5.1l0.4 3.2c2.4-2.4 4.7-3.5 7.7-3.5 5.4 0 9.8 4.1 9.8 11.4v12.3zm17.9-29.9v6.6h6.4v5h-6.5v10c0 2.2 1.2 3.3 3 3.3q0.4 0 0.8 0 0.3-0.1 0.7-0.2 0.3-0.1 0.7-0.2 0.3-0.1 0.6-0.3l1.6 4.9q-0.5 0.3-1.1 0.4-0.6 0.2-1.2 0.4-0.6 0.1-1.2 0.2-0.6 0-1.2 0c-5.1 0.2-8.4-2.7-8.4-8.5v-10h-4.4v-5h4.4v-6zm29.1 6.6h5.6v23.3h-5.5l-0.3-3.4c-1.3 2.7-4.9 4.1-7.5 4.1-6.9 0-12-4.4-12-12.4 0-8.1 5.3-12.2 12.1-12.2 3.1 0 6.1 1.5 7.4 3.8zm-11.9 6.7c-1.2 1.3-2 3.1-2 4.9 0 1.9 0.8 3.6 2 4.9 1.3 1.4 3 2.1 4.9 2.2 9 0 9-14.1 0-14.1-1.9 0-3.6 0.8-4.9 2.1zm40.8 26.3v-12.4c-1.6 2.5-5.3 3.3-7.7 3.3-7.6 0-11.8-5.3-11.8-12.2 0-6.9 4.8-12.2 12-12.2q1 0 2.1 0.2 1.1 0.3 2.1 0.8 1 0.4 1.8 1.2 0.9 0.7 1.5 1.5l0.4-3.2h5.4v33zm-7.2-14.8q1.4 0.1 2.6-0.4 1.2-0.5 2.2-1.4 0.9-1 1.4-2.2 0.5-1.2 0.5-2.6c0-1.8-0.6-3.5-1.9-4.8-1.2-1.3-3-2-4.8-2-1.8 0-3.5 0.7-4.7 2-1.3 1.3-1.9 3-1.9 4.8q0 1.3 0.5 2.6 0.5 1.2 1.4 2.1 0.9 1 2.2 1.5 1.2 0.5 2.5 0.4z"/><path fill-rule="evenodd" class="d" d="m-2.9 118.6h-1.5v-7.4h-2.9v-1.5h7.2v1.5h-2.8zm9.6-3.4q0 0.2 0 0.4 0 0.1 0 0.3-0.1 0.2-0.1 0.4-0.1 0.1-0.1 0.3-0.1 0.1-0.2 0.3-0.1 0.1-0.2 0.3-0.1 0.1-0.2 0.2-0.1 0.2-0.2 0.3-0.1 0.1-0.2 0.2-0.2 0.1-0.3 0.2-0.2 0.1-0.3 0.2-0.2 0.1-0.3 0.1-0.2 0.1-0.4 0.2-0.2 0-0.3 0.1-0.2 0-0.4 0-0.2 0-0.4 0-0.1 0-0.3 0-0.2 0-0.4 0-0.2-0.1-0.3-0.1-0.2-0.1-0.4-0.1-0.1-0.1-0.3-0.2-0.1-0.1-0.3-0.2-0.1-0.1-0.2-0.2-0.2-0.1-0.3-0.2-0.1-0.1-0.2-0.2-0.1-0.2-0.2-0.3-0.1-0.2-0.2-0.3-0.1-0.1-0.1-0.3-0.1-0.2-0.2-0.3 0-0.2 0-0.4-0.1-0.1-0.1-0.3 0-0.2 0-0.3 0-0.2 0-0.4 0-0.2 0.1-0.3 0-0.2 0-0.4 0.1-0.2 0.2-0.3 0-0.2 0.1-0.3 0.1-0.2 0.2-0.3 0.1-0.1 0.2-0.3 0.1-0.1 0.2-0.2 0.3-0.3 0.6-0.5 0.3-0.2 0.6-0.3 0.3-0.1 0.7-0.2 0.3 0 0.7 0 0.2 0 0.3 0 0.2 0 0.4 0 0.2 0.1 0.3 0.1 0.2 0.1 0.4 0.2 0.1 0 0.3 0.1 0.2 0.1 0.3 0.2 0.1 0.1 0.3 0.2 0.1 0.1 0.2 0.2 0.1 0.1 0.2 0.2 0.2 0.2 0.2 0.3 0.1 0.1 0.2 0.3 0.1 0.1 0.2 0.3 0 0.2 0.1 0.3 0 0.2 0.1 0.4 0 0.1 0 0.3 0 0.2 0 0.3zm0 0v0.1q0-0.1 0-0.1zm-1.5 0.1q0-0.1 0-0.3 0-0.1-0.1-0.2 0-0.1 0-0.2 0-0.1-0.1-0.2 0-0.1-0.1-0.2 0-0.1 0-0.1-0.1-0.1-0.2-0.2 0-0.1-0.1-0.2-0.1 0-0.1-0.1-0.1-0.1-0.2-0.1-0.1-0.1-0.2-0.1 0-0.1-0.1-0.1-0.1-0.1-0.2-0.1-0.1 0-0.2-0.1-0.1 0-0.2 0-0.2 0-0.3 0-0.2 0-0.4 0-0.2 0.1-0.4 0.2-0.1 0-0.3 0.2-0.2 0.1-0.3 0.2-0.1 0.1-0.1 0.2-0.1 0.1-0.2 0.1 0 0.1 0 0.2-0.1 0.1-0.1 0.2-0.1 0.1-0.1 0.2 0 0.1 0 0.2 0 0.1-0.1 0.2 0 0.1 0 0.2 0 0.1 0 0.2 0.1 0.2 0.1 0.3 0 0.1 0 0.2 0.1 0.1 0.1 0.2 0 0.1 0.1 0.2 0 0.1 0.1 0.1 0 0.1 0.1 0.2 0 0.1 0.1 0.2 0.1 0 0.2 0.1 0 0.1 0.1 0.1 0.1 0.1 0.2 0.1 0.1 0.1 0.2 0.1 0 0.1 0.1 0.1 0.1 0 0.3 0.1 0.1 0 0.2 0 0.1 0 0.2 0 0.2 0 0.4 0 0.2-0.1 0.4-0.2 0.2 0 0.3-0.2 0.2-0.1 0.3-0.2 0.1-0.1 0.2-0.2 0-0.1 0.1-0.2 0 0 0.1-0.1 0-0.1 0-0.2 0.1-0.1 0.1-0.2 0-0.1 0-0.2 0.1-0.1 0.1-0.2 0-0.1 0-0.2zm9.7 1.9q0 0.4-0.1 0.7 0 0.4-0.1 0.7-0.1 0.3-0.3 0.6-0.2 0.3-0.5 0.6-0.3 0.2-0.6 0.4-0.3 0.2-0.6 0.3-0.4 0.1-0.7 0.1-0.4 0-0.7 0-0.4 0-0.8 0-0.4-0.1-0.8-0.2-0.4-0.1-0.7-0.2-0.4-0.2-0.7-0.4l0.5-1.1q0.2 0.1 0.3 0.1 0.1 0.1 0.3 0.2 0.1 0 0.3 0.1 0.1 0 0.3 0.1 0.1 0 0.3 0.1 0.1 0 0.3 0 0.1 0.1 0.3 0.1 0.1 0 0.3 0 0.2 0 0.4 0 0.2-0.1 0.4-0.1 0.2-0.1 0.4-0.2 0.2-0.1 0.4-0.2 0.1-0.2 0.2-0.4 0.1-0.1 0.2-0.3 0.1-0.2 0.1-0.5 0-0.2 0-0.4v-0.5q-0.1 0.1-0.2 0.3-0.1 0.1-0.2 0.2-0.2 0.1-0.3 0.2-0.1 0.1-0.3 0.2-0.1 0.1-0.3 0.2-0.2 0-0.3 0.1-0.2 0-0.4 0-0.2 0-0.3 0-0.2 0-0.3 0-0.2 0-0.3 0-0.2 0-0.3-0.1-0.2 0-0.3-0.1-0.1 0-0.3-0.1-0.1 0-0.2-0.1-0.1-0.1-0.3-0.2-0.1-0.1-0.2-0.2-0.1-0.1-0.2-0.2-0.1-0.1-0.2-0.3-0.1-0.1-0.1-0.2-0.1-0.1-0.2-0.3-0.1-0.3-0.2-0.6 0-0.4 0-0.7 0-0.4 0-0.7 0.1-0.3 0.2-0.6 0.1-0.2 0.2-0.3 0-0.2 0.1-0.3 0.1-0.1 0.2-0.2 0.1-0.1 0.2-0.2 0.1-0.1 0.2-0.2 0.2-0.1 0.3-0.2 0.1-0.1 0.2-0.2 0.2 0 0.3-0.1 0.1 0 0.3-0.1 0.1 0 0.3 0 0.1-0.1 0.3-0.1 0.1 0 0.2 0 0.2 0 0.4 0 0.2 0 0.4 0.1 0.1 0 0.3 0.1 0.2 0.1 0.3 0.2 0.2 0 0.3 0.1 0.1 0.1 0.3 0.2 0.1 0.1 0.2 0.2 0.1 0.2 0.2 0.3v-1h1.6v5.4zm-1.5-2.5q-0.1-0.1-0.1-0.2 0-0.1 0-0.2-0.1-0.1-0.1-0.2 0-0.1-0.1-0.2 0 0-0.1-0.1 0-0.1-0.1-0.2-0.1 0-0.1-0.1-0.1-0.1-0.2-0.1 0-0.1-0.1-0.1-0.1-0.1-0.2-0.1-0.1 0-0.2-0.1 0 0-0.1 0-0.1 0-0.2-0.1-0.1 0-0.2 0-0.1 0-0.2 0-0.1 0-0.2 0-0.1 0-0.2 0-0.1 0-0.2 0.1-0.1 0-0.2 0 0 0.1-0.1 0.1-0.1 0-0.2 0.1 0 0-0.1 0.1-0.1 0-0.2 0.1 0 0.1-0.1 0.1 0 0.1-0.1 0.2 0 0-0.1 0.1 0 0.1-0.1 0.2 0 0.1 0 0.2-0.1 0.1-0.1 0.2 0 0.1 0 0.1 0 0.1 0 0.2 0 0.1 0 0.2 0 0.1 0 0.2 0 0.1 0.1 0.2 0 0.1 0.1 0.2 0 0.1 0 0.2 0.1 0 0.1 0.1 0.1 0.1 0.1 0.2 0.1 0 0.1 0.1 0.1 0 0.2 0.1 0.1 0.1 0.1 0.1 0.1 0.1 0.2 0.1 0.1 0 0.2 0.1 0 0 0.1 0 0.1 0 0.2 0.1 0.1 0 0.2 0 0.1 0 0.2 0 0.1 0 0.2 0 0.1 0 0.2 0 0.1-0.1 0.2-0.1 0.1 0 0.1 0 0.1-0.1 0.2-0.1 0.1 0 0.2-0.1 0.1 0 0.1-0.1 0.1-0.1 0.2-0.1 0-0.1 0.1-0.1 0.1-0.1 0.1-0.2 0.1-0.1 0.1-0.1 0.1-0.1 0.1-0.2 0-0.1 0.1-0.2 0-0.1 0-0.2 0-0.1 0.1-0.2 0 0 0-0.1 0-0.1 0-0.2zm4.6 1q0 0.2 0.1 0.4 0 0.2 0.1 0.3 0.1 0.2 0.2 0.3 0.1 0.2 0.2 0.3 0.1 0.1 0.3 0.2 0.1 0.1 0.3 0.1 0.2 0.1 0.3 0.1 0.2 0 0.4 0 0.1 0 0.2 0 0.2 0 0.3 0 0.1 0 0.2-0.1 0.2 0 0.3-0.1 0.1 0 0.2-0.1 0.1-0.1 0.2-0.1 0.1-0.1 0.2-0.2 0.1-0.1 0.2-0.2l0.9 0.8q-0.1 0.2-0.3 0.3-0.1 0.1-0.2 0.2-0.2 0.2-0.3 0.3-0.2 0.1-0.4 0.1-0.1 0.1-0.3 0.2-0.2 0.1-0.4 0.1-0.2 0.1-0.4 0.1-0.2 0-0.5 0-0.1 0-0.3 0-0.2 0-0.3-0.1-0.2 0-0.4-0.1-0.1 0-0.3-0.1-0.2 0-0.3-0.1-0.1-0.1-0.3-0.2-0.1-0.1-0.2-0.2-0.2-0.1-0.3-0.2-0.1-0.1-0.2-0.2-0.1-0.2-0.2-0.3-0.1-0.1-0.2-0.3-0.1-0.1-0.1-0.3-0.1-0.1-0.1-0.3-0.1-0.2-0.1-0.4-0.1-0.2-0.1-0.3 0-0.2 0-0.4 0-0.2 0-0.4 0-0.1 0.1-0.3 0-0.2 0.1-0.3 0-0.2 0.1-0.4 0-0.1 0.1-0.3 0.1-0.1 0.1-0.2 0.1-0.2 0.2-0.3 0.1-0.1 0.2-0.3 0.1-0.1 0.3-0.2 0.1-0.1 0.2-0.2 0.1-0.1 0.3-0.2 0.1-0.1 0.2-0.1 0.2-0.1 0.4-0.1 0.1-0.1 0.3-0.1 0.2-0.1 0.3-0.1 0.2 0 0.4 0 0.1 0 0.3 0 0.2 0 0.4 0.1 0.2 0 0.3 0.1 0.2 0 0.4 0.1 0.1 0.1 0.2 0.1 0.2 0.1 0.3 0.2 0.1 0.1 0.2 0.2 0.2 0.1 0.3 0.3 0.1 0.1 0.2 0.2 0 0.2 0.1 0.3 0.1 0.2 0.2 0.3 0 0.2 0.1 0.3 0 0.2 0.1 0.4 0 0.1 0 0.3 0 0.2 0.1 0.4 0 0.1 0 0.3 0 0.1 0 0.2 0 0 0 0.1 0 0 0 0 0 0.1 0 0.1 0 0 0 0zm3.4-1q0-0.1 0-0.1 0-0.1-0.1-0.2 0-0.1 0-0.2 0-0.1-0.1-0.2 0 0 0-0.1-0.1-0.1-0.1-0.2 0 0-0.1-0.1 0-0.1-0.1-0.1-0.1-0.1-0.1-0.1-0.1-0.1-0.1-0.1-0.1-0.1-0.2-0.1 0-0.1-0.1-0.1-0.1 0-0.2 0-0.1-0.1-0.1-0.1-0.1 0-0.2 0-0.1 0-0.2 0-0.2 0-0.3 0-0.2 0-0.3 0.1-0.2 0.1-0.3 0.1-0.2 0.1-0.3 0.3-0.1 0.1-0.2 0.2-0.1 0.2-0.2 0.4 0 0.1-0.1 0.3 0 0.2 0 0.3zm4.8 1.7q0 0.1 0 0.2 0.1 0.1 0.1 0.2 0 0.1 0 0.1 0.1 0.1 0.1 0.2 0.1 0 0.2 0.1 0.1 0 0.1 0 0.1 0.1 0.2 0.1 0.1 0 0.2 0 0.1 0 0.2 0 0.1-0.1 0.2-0.1 0.2 0 0.3 0 0.1-0.1 0.2-0.1v1.2q-0.1 0-0.1 0.1-0.1 0-0.2 0-0.1 0.1-0.1 0.1-0.1 0-0.2 0.1-0.1 0-0.2 0-0.1 0-0.2 0-0.1 0-0.2 0-0.1 0-0.2 0-0.1 0-0.2 0-0.1 0-0.2 0-0.1 0-0.2 0 0 0-0.1-0.1-0.1 0-0.2 0-0.1 0-0.2-0.1-0.1 0-0.1-0.1-0.1 0-0.2-0.1 0 0-0.1-0.1-0.1-0.1-0.1-0.2-0.1 0-0.1-0.1 0-0.1-0.1-0.2 0-0.1 0-0.2-0.1-0.1-0.1-0.2 0-0.2 0-0.3 0-0.1 0-0.2v-3.6h-0.9v-1.3h0.9v-1.8h1.6v1.8h1.8v1.4h-1.8zm4.9 2.1h-1.6v-9.3h1.6v3.6q0.1 0 0.1-0.1 0.1 0 0.1-0.1 0.1-0.1 0.1-0.1 0.1-0.1 0.1-0.1 0.1-0.1 0.1-0.1 0.1-0.1 0.1-0.1 0.1-0.1 0.1-0.1 0.1-0.1 0.2-0.1 0 0 0.1-0.1 0.1 0 0.1 0 0.1-0.1 0.2-0.1 0.1 0 0.1-0.1 0.1 0 0.2 0 0.1 0 0.2 0 0.1 0 0.2 0 0-0.1 0.1-0.1 0.3 0 0.5 0.1 0.3 0 0.5 0.1 0.2 0.1 0.4 0.2 0.2 0.2 0.4 0.3 0.1 0.2 0.3 0.5 0.1 0.2 0.2 0.4 0 0.3 0.1 0.5 0 0.3 0 0.5v4.3h-1.5v-3.8q0-0.2 0-0.3-0.1-0.2-0.1-0.3-0.1-0.2-0.1-0.3-0.1-0.2-0.2-0.3-0.1-0.1-0.2-0.2-0.1-0.1-0.3-0.2-0.1 0-0.3 0-0.1-0.1-0.3 0-0.1-0.1-0.3 0-0.1 0-0.3 0.1-0.1 0-0.2 0.1-0.1 0.1-0.3 0.2-0.1 0.1-0.1 0.3-0.1 0.1-0.2 0.3 0 0.1 0 0.3-0.1 0.1-0.1 0.3zm7.6-2.4q0.1 0.2 0.2 0.3 0.1 0.2 0.2 0.3 0.1 0.2 0.2 0.3 0.2 0.1 0.3 0.2 0.2 0.1 0.3 0.1 0.2 0.1 0.4 0.1 0.1 0 0.3 0 0.1 0 0.3 0 0.1 0 0.2 0 0.1 0 0.3-0.1 0.1 0 0.2-0.1 0.1 0 0.2-0.1 0.1-0.1 0.2-0.1 0.1-0.1 0.2-0.2 0.1-0.1 0.2-0.2l0.9 0.8q-0.1 0.2-0.2 0.3-0.2 0.1-0.3 0.3-0.1 0.1-0.3 0.2-0.2 0.1-0.3 0.2-0.2 0-0.4 0.1-0.2 0.1-0.4 0.1-0.2 0.1-0.4 0.1-0.2 0-0.4 0-0.2 0-0.4 0-0.1 0-0.3-0.1-0.2 0-0.3 0-0.2-0.1-0.4-0.2-0.3-0.1-0.6-0.3-0.2-0.1-0.5-0.4-0.2-0.2-0.4-0.5-0.2-0.3-0.3-0.6-0.1-0.1-0.1-0.3-0.1-0.2-0.1-0.4 0-0.1 0-0.3-0.1-0.2 0-0.4-0.1-0.2 0-0.3 0-0.2 0-0.4 0-0.2 0.1-0.3 0-0.2 0.1-0.3 0-0.2 0.1-0.3 0.1-0.2 0.2-0.3 0.1-0.2 0.2-0.3 0.1-0.1 0.2-0.3 0.1-0.1 0.2-0.2 0.1-0.1 0.2-0.2 0.2-0.1 0.3-0.2 0.1 0 0.3-0.1 0.1-0.1 0.3-0.1 0.1-0.1 0.3-0.1 0.2-0.1 0.4-0.1 0.1 0 0.3 0 0.2 0 0.4 0 0.1 0 0.3 0.1 0.2 0 0.4 0.1 0.1 0 0.3 0.1 0.1 0.1 0.3 0.2 0.1 0 0.2 0.1 0.2 0.1 0.3 0.2 0.1 0.2 0.2 0.3 0.1 0.1 0.2 0.3 0.1 0.1 0.1 0.2 0.1 0.2 0.2 0.3 0 0.2 0.1 0.3 0 0.2 0.1 0.4 0 0.2 0 0.3 0.1 0.2 0.1 0.4 0 0.1 0 0.3 0 0 0 0.1 0 0 0 0 0 0 0 0.1 0 0 0 0 0 0.1 0 0.1 0 0 0 0 0 0.1 0 0.1 0 0 0 0h-4.9q0 0.2 0 0.4zm3.4-1.4q-0.1-0.1-0.1-0.2 0-0.1 0-0.2 0-0.1-0.1-0.2 0-0.1 0-0.1-0.1-0.2-0.2-0.3 0-0.2-0.2-0.3-0.1-0.1-0.2-0.2-0.1-0.1-0.3-0.2-0.1 0-0.1 0-0.1-0.1-0.2-0.1-0.1 0-0.2 0-0.1 0-0.2 0-0.1 0-0.3 0-0.1 0.1-0.3 0.2-0.1 0-0.2 0.1-0.2 0.1-0.3 0.3-0.1 0.1-0.2 0.3-0.1 0.1-0.1 0.3-0.1 0.1-0.2 0.3 0 0.2 0 0.3zm4.6 3.9h-1.6v-6.7h1.6v1.6q0.1-0.2 0.2-0.4 0-0.1 0.2-0.3 0.1-0.2 0.2-0.3 0.1-0.1 0.3-0.2 0.1-0.2 0.3-0.3 0.2 0 0.4-0.1 0.2 0 0.4-0.1 0.2 0 0.4 0v1.7h-0.1q-0.1 0-0.3 0-0.1 0-0.2 0-0.1 0-0.2 0-0.1 0.1-0.2 0.1-0.2 0.1-0.3 0.1-0.1 0.1-0.1 0.1-0.1 0.1-0.2 0.2-0.1 0-0.2 0.1-0.1 0.1-0.1 0.2-0.1 0.1-0.2 0.2 0 0.1-0.1 0.2 0 0.1 0 0.2-0.1 0.2-0.1 0.3-0.1 0.2-0.1 0.3 0 0.2 0 0.3 0 0.2 0 0.3zm13-8.9h1.3l2.2 6.7 2.1-6.6h1.6l-3.1 8.9h-1.3l-2.2-6.3-2.2 6.3h-1.3l-3.1-8.9h1.7l2.1 6.6zm9 6.2q0.1 0.1 0.1 0.3 0.1 0.2 0.1 0.4 0.1 0.1 0.2 0.3 0.2 0.1 0.3 0.2 0.1 0.1 0.3 0.2 0.1 0.1 0.3 0.2 0.1 0 0.3 0 0.2 0.1 0.4 0.1 0.1 0 0.2 0 0.1-0.1 0.3-0.1 0.1 0 0.2 0 0.1-0.1 0.3-0.1 0.1-0.1 0.2-0.2 0.1 0 0.2-0.1 0.1-0.1 0.2-0.2 0.1 0 0.2-0.1l0.9 0.8q-0.1 0.1-0.3 0.2-0.1 0.2-0.2 0.3-0.2 0.1-0.3 0.2-0.2 0.1-0.4 0.2-0.2 0.1-0.3 0.1-0.2 0.1-0.4 0.1-0.2 0.1-0.4 0.1-0.3 0-0.5 0-0.1 0-0.3 0-0.2 0-0.3 0-0.2-0.1-0.4-0.1-0.1-0.1-0.3-0.1-0.3-0.2-0.6-0.3-0.3-0.2-0.5-0.5-0.2-0.2-0.4-0.5-0.2-0.2-0.3-0.5-0.1-0.2-0.2-0.4 0-0.2 0-0.3-0.1-0.2-0.1-0.4 0-0.2 0-0.4 0-0.1 0-0.3 0-0.2 0.1-0.4 0-0.1 0-0.3 0.1-0.2 0.1-0.3 0.1-0.2 0.2-0.3 0-0.2 0.1-0.3 0.1-0.2 0.2-0.3 0.1-0.1 0.2-0.2 0.1-0.2 0.2-0.3 0.2-0.1 0.3-0.2 0.1-0.1 0.2-0.1 0.2-0.1 0.3-0.2 0.3-0.1 0.7-0.2 0.3-0.1 0.7-0.1 0.3 0 0.7 0.1 0.3 0.1 0.6 0.2 0.2 0.1 0.3 0.2 0.2 0 0.3 0.1 0.1 0.1 0.2 0.2 0.1 0.2 0.2 0.3 0.1 0.1 0.2 0.3 0.1 0.1 0.2 0.2 0.1 0.2 0.1 0.3 0.1 0.2 0.1 0.3 0.1 0.2 0.1 0.4 0.1 0.2 0.1 0.3 0 0.2 0 0.4 0 0.1 0 0.3c0 0.1 0 0.4 0 0.4h-4.9zm3.4-1q0 0 0-0.1 0-0.1 0-0.2 0-0.1-0.1-0.2 0-0.1 0-0.1 0-0.1-0.1-0.2 0-0.1-0.1-0.1 0-0.1 0-0.2-0.1 0-0.2-0.1 0-0.1-0.1-0.1 0-0.1-0.1-0.1-0.1-0.1-0.1-0.1-0.1 0-0.2-0.1 0 0-0.1 0-0.1-0.1-0.2-0.1-0.1 0-0.2 0-0.1 0-0.2 0-0.1 0-0.3 0-0.1 0-0.3 0.1-0.1 0.1-0.3 0.2-0.1 0.1-0.2 0.2-0.1 0.1-0.2 0.3-0.1 0.1-0.2 0.3-0.1 0.1-0.1 0.3-0.1 0.2-0.1 0.3zm14.9 2.6q-0.1 0.1-0.2 0.1-0.1 0.1-0.2 0.2-0.1 0-0.2 0.1-0.1 0.1-0.2 0.1-0.1 0.1-0.2 0.2-0.1 0-0.2 0.1-0.1 0-0.2 0.1-0.1 0-0.2 0.1-0.3 0.1-0.5 0.2-0.3 0-0.6 0.1-0.2 0-0.5 0.1-0.3 0-0.6 0-0.2 0-0.4 0-0.3-0.1-0.5-0.1-0.3 0-0.5-0.1-0.2-0.1-0.4-0.2-0.2-0.1-0.4-0.2-0.2-0.1-0.4-0.2-0.2-0.1-0.4-0.3-0.1-0.1-0.3-0.3-0.1-0.1-0.3-0.3-0.1-0.2-0.2-0.3-0.1-0.2-0.2-0.4-0.1-0.2-0.2-0.4-0.1-0.2-0.2-0.5 0-0.2-0.1-0.4 0-0.2 0-0.5-0.1-0.2-0.1-0.4 0-0.3 0.1-0.5 0-0.2 0-0.4 0.1-0.3 0.1-0.5 0.1-0.2 0.2-0.4 0.1-0.2 0.2-0.4 0.1-0.2 0.2-0.4 0.1-0.2 0.3-0.3 0.1-0.2 0.3-0.4 0.1-0.1 0.3-0.3 0.2-0.1 0.4-0.2 0.1-0.2 0.3-0.3 0.2-0.1 0.4-0.2 0.2-0.1 0.5-0.1 0.2-0.1 0.4-0.2 0.3 0 0.5 0 0.2 0 0.5 0 0.1 0 0.2 0 0.2 0 0.3 0 0.1 0 0.3 0 0.1 0 0.2 0 0.2 0.1 0.3 0.1 0.1 0 0.2 0 0.1 0.1 0.2 0.1 0.1 0 0.2 0.1 0.1 0 0.2 0.1 0.1 0 0.2 0 0.1 0.1 0.2 0.1 0.1 0.1 0.2 0.1 0.1 0.1 0.2 0.2 0.1 0 0.1 0.1 0.1 0.1 0.2 0.1 0.1 0.1 0.2 0.2l-1 1.1q-0.1 0-0.1-0.1-0.1 0-0.2-0.1 0 0-0.1-0.1-0.1 0-0.1-0.1-0.1 0-0.2 0 0-0.1-0.1-0.1-0.1-0.1-0.1-0.1-0.1 0-0.2-0.1-0.1 0-0.1 0-0.1 0-0.2-0.1-0.1 0-0.2 0 0 0-0.1 0-0.1-0.1-0.2-0.1-0.1 0-0.2 0-0.1 0-0.2 0-0.1 0-0.2 0-0.1 0-0.3 0-0.1 0-0.3 0-0.1 0.1-0.3 0.1-0.1 0.1-0.2 0.1-0.2 0.1-0.3 0.2-0.1 0-0.2 0.1-0.1 0.1-0.2 0.2-0.1 0.1-0.2 0.2-0.1 0.1-0.2 0.2-0.1 0.2-0.2 0.3-0.1 0.1-0.1 0.2-0.1 0.2-0.1 0.3-0.1 0.2-0.2 0.3 0 0.2 0 0.3-0.1 0.2-0.1 0.3 0 0.2 0 0.3 0 0.2 0 0.3 0 0.2 0.1 0.4 0 0.1 0 0.3 0.1 0.1 0.1 0.3 0.1 0.1 0.2 0.3 0 0.1 0.1 0.2 0.1 0.2 0.2 0.3 0.1 0.1 0.2 0.2 0.1 0.1 0.2 0.2 0.1 0.1 0.2 0.2 0.2 0.1 0.3 0.1 0.1 0.1 0.3 0.2 0.1 0 0.3 0.1 0.1 0 0.3 0 0.1 0.1 0.3 0.1 0.1 0 0.3 0 0.1 0 0.3 0 0.1 0 0.3 0 0.1-0.1 0.3-0.1 0.1 0 0.3-0.1 0.1 0 0.2-0.1 0.2 0 0.3-0.1 0.1-0.1 0.2-0.1 0.2-0.1 0.3-0.2v-1.6h-2.3v-1.3h3.8v3.7zm3.4 1.2h-1.6v-6.7h1.6v1.6q0.1-0.2 0.1-0.4 0.1-0.1 0.3-0.3 0.1-0.1 0.2-0.3 0.1-0.1 0.3-0.2 0.1-0.2 0.3-0.2 0.2-0.1 0.4-0.2 0.2 0 0.4-0.1 0.2 0 0.4 0v1.7h-0.1q-0.1 0-0.3 0-0.1 0-0.2 0-0.1 0-0.2 0.1-0.1 0-0.3 0-0.1 0.1-0.2 0.1-0.1 0.1-0.2 0.1 0 0.1-0.1 0.2-0.1 0-0.2 0.1-0.1 0.1-0.1 0.2-0.1 0.1-0.2 0.2 0 0.1-0.1 0.2 0 0.1-0.1 0.3 0 0.1 0 0.2-0.1 0.2-0.1 0.3 0 0.2 0 0.3 0 0.2 0 0.3zm10.2-2.9q0 0.2 0 0.3-0.1 0.2-0.1 0.4-0.1 0.1-0.2 0.3 0 0.2-0.1 0.3-0.1 0.2-0.2 0.3-0.1 0.1-0.2 0.3-0.1 0.1-0.2 0.2-0.1 0.1-0.3 0.2-0.1 0.2-0.2 0.2-0.2 0.1-0.3 0.2-0.2 0.1-0.3 0.2-0.2 0-0.4 0.1-0.2 0-0.3 0.1-0.2 0-0.4 0-0.2 0-0.4 0-0.2 0-0.3 0-0.2 0-0.4 0-0.2-0.1-0.3-0.1-0.2-0.1-0.4-0.1-0.1-0.1-0.3-0.2-0.1 0-0.3-0.1-0.1-0.1-0.3-0.2-0.1-0.2-0.2-0.3-0.1-0.1-0.2-0.2-0.1-0.2-0.2-0.3-0.1-0.1-0.2-0.3-0.1-0.1-0.2-0.3 0-0.1-0.1-0.3 0-0.2-0.1-0.3 0-0.2 0-0.4 0-0.2 0-0.3 0-0.2 0-0.4 0-0.2 0-0.3 0.1-0.2 0.1-0.4 0.1-0.1 0.1-0.3 0.1-0.2 0.2-0.3 0.1-0.1 0.2-0.3 0.1-0.1 0.2-0.3 0.1-0.1 0.2-0.2 0.1-0.1 0.3-0.2 0.1-0.1 0.2-0.2 0.2-0.1 0.3-0.2 0.2-0.1 0.3-0.2 0.2 0 0.4-0.1 0.1 0 0.3-0.1 0.2 0 0.4 0 0.2 0 0.3 0 0.2 0 0.4 0 0.2 0 0.4 0 0.2 0.1 0.3 0.1 0.2 0.1 0.4 0.1 0.1 0.1 0.3 0.2 0.1 0.1 0.3 0.2 0.1 0 0.3 0.2 0.1 0.1 0.2 0.2 0.1 0.1 0.2 0.2 0.1 0.2 0.2 0.3 0.1 0.1 0.2 0.3 0.1 0.1 0.1 0.3 0.1 0.1 0.2 0.3 0 0.2 0.1 0.4 0 0.1 0 0.3 0 0.2 0 0.3 0 0.2 0 0.4zm-1.5-0.6q0-0.1-0.1-0.2 0-0.1 0-0.2 0-0.1-0.1-0.2 0-0.1-0.1-0.2 0-0.1-0.1-0.2 0 0-0.1-0.1 0-0.1-0.1-0.2-0.1-0.1-0.3-0.3-0.2-0.1-0.4-0.2-0.2 0-0.4-0.1-0.2 0-0.4 0-0.1 0-0.2 0-0.1 0-0.2 0-0.1 0-0.2 0.1-0.1 0-0.2 0-0.1 0.1-0.2 0.1-0.1 0.1-0.1 0.1-0.1 0.1-0.2 0.2-0.1 0-0.1 0.1-0.1 0.1-0.2 0.2 0 0-0.1 0.1 0 0.1-0.1 0.2 0 0.1 0 0.2-0.1 0.1-0.1 0.2 0 0.1 0 0.2-0.1 0.1-0.1 0.2 0 0.1 0 0.2 0 0.1 0 0.2 0 0.1 0.1 0.2 0 0.1 0 0.3 0 0.1 0.1 0.2 0.1 0.2 0.3 0.5 0.2 0.2 0.4 0.4 0.3 0.2 0.5 0.3 0.3 0.1 0.7 0.1 0.1 0 0.2 0 0.1 0 0.2-0.1 0.1 0 0.2 0 0.1 0 0.2-0.1 0.1 0 0.2-0.1 0.1 0 0.1-0.1 0.1 0 0.2-0.1 0.1-0.1 0.1-0.2 0.1 0 0.2-0.1 0-0.1 0.1-0.2 0-0.1 0.1-0.1 0-0.1 0-0.2 0.1-0.1 0.1-0.2 0-0.1 0-0.2 0.1-0.1 0.1-0.2 0-0.2 0-0.3 0-0.1 0-0.2zm9.5 1.4l1.4-4.6h1.5l-2.2 6.8h-1.4l-1.5-4.6-1.5 4.6h-1.3l-2.2-6.8h1.6l1.3 4.7 1.5-4.7h1.2zm6-6.7v0.5l-0.5 5.6h-0.8l-0.5-5.6v-0.5zm0.1 8.9h-1.7v-1.7h1.6z"/></svg>